Coordinates
version=1
nRows=18
nColumns=22
inDegrees=yes

Units are S.I. units (second, meters, Newtons, ...)
If the header above contains a line with 'inDegrees', this indicates whether rotational values are in degrees (yes) or radians (no).

endheader
time	pelvis_tilt	pelvis_list	pelvis_rotation	pelvis_tx	pelvis_ty	pelvis_tz	hip_flexion_r	hip_adduction_r	hip_rotation_r	knee_angle_r	ankle_angle_r	subtalar_angle_r	hip_flexion_l	hip_adduction_l	hip_rotation_l	knee_angle_l	ankle_angle_l	subtalar_angle_l	lumbar_extension	lumbar_bending	lumbar_rotation
      0.01000000	     -0.90890952	     -3.84187845	     -9.50569840	      0.09778164	      1.02096418	      0.79318930	      1.99606432	      6.17998764	     -4.55132862	     -9.88052286	      8.66376737	     -2.22765893	      2.06755417	     -3.62527598	    -10.02791116	    -11.06421978	     11.04805195	     -2.36125480	     -9.83844533	      3.26372753	      2.55914176
      0.02000000	     -0.91043218	     -3.84168803	     -9.50504479	      0.09780711	      1.02096198	      0.79319277	      1.99587365	      6.18022403	     -4.55134902	     -9.88053469	      8.66363999	     -2.22767310	      2.06724635	     -3.62540419	    -10.02804965	    -11.06425273	     11.04805285	     -2.36131706	     -9.83913780	      3.26363989	      2.55911859
      0.03000000	     -0.91375527	     -3.84220359	     -9.49688864	      0.09781863	      1.02095731	      0.79319501	      1.99773470	      6.18252123	     -4.55174469	     -9.87877177	      8.66269172	     -2.22780854	      2.06908920	     -3.62742118	    -10.03041707	    -11.05864461	     11.04798079	     -2.36196067	     -9.84278988	      3.26208497	      2.55845294
      0.04000000	     -0.91789937	     -3.84267558	     -9.49058718	      0.09784219	      1.02095294	      0.79319789	      1.99969077	      6.18441520	     -4.55370385	     -9.87713155	      8.66143655	     -2.22805351	      2.06915231	     -3.62902773	    -10.03268369	    -11.05086344	     11.04717936	     -2.36279868	     -9.84389506	      3.26270664	      2.55501930
      0.05000000	     -0.92549349	     -3.84416536	     -9.48680739	      0.09789521	      1.02094463	      0.79320189	      2.00336310	      6.18725432	     -4.56437918	     -9.87537172	      8.65735054	     -2.22911612	      2.06371794	     -3.63064436	    -10.03349153	    -11.02978177	     11.04177672	     -2.36535953	     -9.83455615	      3.26878892	      2.53929326
      0.06000000	     -0.92921344	     -3.84325425	     -9.48356955	      0.09791107	      1.02094147	      0.79320904	      2.00596597	      6.18765934	     -4.56553891	     -9.87394896	      8.65711356	     -2.22928328	      2.06449234	     -3.63114220	    -10.03372060	    -11.02540955	     11.04113273	     -2.36567993	     -9.83868396	      3.26838149	      2.53864788
      0.07000000	     -0.93716778	     -3.84201978	     -9.47963836	      0.09795515	      1.02093527	      0.79321466	      2.01249697	      6.18794021	     -4.57627833	     -9.87529312	      8.65470578	     -2.23069694	      2.05874736	     -3.62963123	    -10.03249232	    -11.00100143	     11.03463440	     -2.36705567	     -9.83136941	      3.27152353	      2.52663023
      0.08000000	     -0.94125104	     -3.84053329	     -9.47841868	      0.09796752	      1.02093285	      0.79322531	      2.01537999	      6.18771248	     -4.57761503	     -9.87326125	      8.65473549	     -2.23089809	      2.05983638	     -3.62994422	    -10.03255963	    -10.99654179	     11.03393782	     -2.36716796	     -9.83636202	      3.27164805	      2.52580932
      0.09000000	     -0.94606803	     -3.83902484	     -9.47703991	      0.09798210	      1.02093092	      0.79323586	      2.01898183	      6.18754144	     -4.57935836	     -9.87136225	      8.65450009	     -2.23115517	      2.06002177	     -3.63012152	    -10.03363309	    -10.98869487	     11.03306021	     -2.36711729	     -9.84022932	      3.27293859	      2.52342588
      0.10000000	     -0.95529934	     -3.83793571	     -9.47806168	      0.09802946	      1.02092475	      0.79325407	      2.02592244	      6.18858116	     -4.58603476	     -9.87194741	      8.65117493	     -2.23216165	      2.05279156	     -3.62941769	    -10.03538723	    -10.96118170	     11.02684176	     -2.36599418	     -9.83126288	      3.27795946	      2.50984043
      0.11000000	     -0.95946021	     -3.83628759	     -9.47871562	      0.09804140	      1.02092384	      0.79327421	      2.02865964	      6.18838203	     -4.58681286	     -9.86957409	      8.65089036	     -2.23223840	      2.05412354	     -3.63006389	    -10.03526787	    -10.95715440	     11.02603721	     -2.36571961	     -9.83641028	      3.27878199	      2.50872464
      0.12000000	     -0.96461822	     -3.83477195	     -9.48023491	      0.09805152	      1.02092226	      0.79329917	      2.03228479	      6.18876533	     -4.58749563	     -9.86695578	      8.65018685	     -2.23224450	      2.05522412	     -3.63094732	    -10.03573605	    -10.95062638	     11.02498877	     -2.36515054	     -9.84162764	      3.28052282	      2.50574655
      0.13000000	     -0.97512542	     -3.83569893	     -9.48354627	      0.09808586	      1.02091563	      0.79333483	      2.04074417	      6.19328744	     -4.58628921	     -9.86689151	      8.64319084	     -2.23171717	      2.05123462	     -3.63406137	    -10.03679602	    -10.92632124	     11.01704240	     -2.36043908	     -9.83462164	      3.28854254	      2.48875969
      0.14000000	     -0.97998611	     -3.83394543	     -9.48596631	      0.09809435	      1.02091391	      0.79337115	      2.04372917	      6.19375578	     -4.58696400	     -9.86360733	      8.64285328	     -2.23158019	      2.05372610	     -3.63544768	    -10.03641254	    -10.92303512	     11.01639059	     -2.35967544	     -9.84132487	      3.28901041	      2.48713534
      0.15000000	     -0.98542402	     -3.83217725	     -9.48934425	      0.09810102	      1.02091112	      0.79341716	      2.04738949	      6.19529931	     -4.58748731	     -9.86025575	      8.64238433	     -2.23138201	      2.05616964	     -3.63706917	    -10.03642338	    -10.91848356	     11.01560347	     -2.35853720	     -9.84807785	      3.28983989	      2.48339722
      0.16000000	     -0.99144803	     -3.83053098	     -9.49333745	      0.09810725	      1.02090650	      0.79347077	      2.05155693	      6.19736246	     -4.58773003	     -9.85683272	      8.64187068	     -2.23114512	      2.05868092	     -3.63934209	    -10.03675550	    -10.91295578	     11.01463738	     -2.35698501	     -9.85483118	      3.29081968	      2.47760636
      0.17000000	     -1.00423068	     -3.83239673	     -9.49607652	      0.09812969	      1.02089477	      0.79353172	      2.06157047	      6.20536248	     -4.58104669	     -9.85515043	      8.63675188	     -2.22977622	      2.06164794	     -3.64605130	    -10.03900404	    -10.89654916	     11.00685027	     -2.34577593	     -9.84988713	      3.30018509	      2.44760244
      0.18000000	     -1.01031281	     -3.82994075	     -9.49998719	      0.09812828	      1.02088845	      0.79359602	      2.06536058	      6.20703716	     -4.58219475	     -9.85029325	      8.63690676	     -2.22958697	      2.06591891	     -3.64822780	    -10.03833132	    -10.89356276	     11.00636048	     -2.34436377	     -9.85921868	      3.29953918	      2.44510451
